<svg width="306" height="282" viewBox="0 0 306 282" fill="none" xmlns="http://www.w3.org/2000/svg">
<path d="M130 6.7C131.7 5.5 135.5 3.5 138.5 2.3C143 0.5 146 0 154.5 0C162 0 167.1 0.6 172.3 2C176.2 3.1 182.8 5.6 186.8 7.6C191.8 10.2 196.3 13.5 201.6 18.9C207.4 24.7 210.2 28.5 213.3 35C215.6 39.7 218.4 47.1 219.5 51.5C220.5 55.9 222.6 69.2 224.1 81C226.3 98.3 226.8 106.9 226.9 125C227 141 226.6 149.1 225.6 153C224.9 156 223.2 160.8 222 163.5C220.7 166.3 217.9 170 215.8 171.9C213.7 173.8 210.4 176 208.5 176.8C206.6 177.6 201.5 178.3 189.5 178.5V187C189.5 191.7 190.1 198.4 190.9 202C191.6 205.6 193.4 210.8 194.8 213.5C196.2 216.3 198.6 219.7 200.2 221.2C201.7 222.7 204.6 224.5 206.5 225.3C208.4 226.1 219.4 228.9 231 231.4C242.6 233.9 256.5 237.4 262 239.1C267.5 240.8 275.1 243.8 279 245.7C282.9 247.7 287.8 250.7 289.9 252.4C292.1 254.1 295.8 258.4 298.1 262C300.4 265.6 303.1 270.5 303.9 273C304.8 275.5 305.5 278.5 305.5 282H0L0.7 278.3C1.1 276.2 3.1 271.1 5.2 267C7.3 262.6 10.9 257.4 13.9 254.4C17.1 251.3 21.8 248 26.5 245.7C30.6 243.8 37.4 241.1 41.5 239.7C45.6 238.4 55.1 235.9 62.5 234.2C69.9 232.5 81.2 230 87.5 228.6C93.8 227.1 100.5 225.1 102.3 224C104 222.9 106.9 220.1 108.5 217.8C110.2 215.4 112.5 210.6 113.7 207C115.3 202.1 115.8 197.7 116 178.5L108.5 178.3C102.7 178.2 99.8 177.5 96 175.6C93.3 174.2 89.7 171.4 88 169.3C86.4 167.2 84.1 162.8 82.9 159.5C81.7 156.2 80.2 149.9 79.5 145.5C78.6 139.9 78.4 131.5 78.8 117.5C79.1 106.5 80.3 89.8 81.4 80.5C82.6 71.2 84 60.3 84.6 56.5C85.2 52.7 86.3 47.3 87.2 44.5C88.1 41.8 90 37 91.6 34C93.1 31 96.3 26.6 98.7 24.3C101 22 105 19.2 107.5 18.1C110 17 113.8 16 116 16C119.3 16 120.6 15.4 123.5 12.4C125.4 10.4 128.3 7.9 130 6.7Z" fill="#F78DA8"/>
</svg>
