<svg width="323" height="282" viewBox="0 0 323 282" fill="none" xmlns="http://www.w3.org/2000/svg">
<path d="M125.66 5.94487C129.937 4.03089 137.459 1.67522 142.326 0.939072C147.194 0.0556959 157.075 -0.238763 164.45 0.202925C171.677 0.497384 181.558 1.82245 186.131 3.00028C190.85 4.17812 197.782 6.82825 201.617 8.74223C205.599 10.6562 211.646 15.0731 215.333 18.7538C219.021 22.4346 223.445 28.3237 225.215 31.8572C228.46 38.1881 228.46 39.0715 227.132 63.3643C225.953 84.8598 226.1 88.5406 227.87 89.424C229.345 90.1601 230.082 92.9575 230.082 97.2271C230.082 100.908 228.902 108.269 227.427 113.717C225.952 119.9 223.298 125.348 220.79 128.145C218.578 130.501 215.776 135.948 214.596 139.924C213.416 144.046 210.466 151.702 208.106 157.149C204.272 165.542 203.534 169.075 203.534 178.203C203.534 185.712 204.124 189.393 205.304 189.834C206.337 190.129 208.844 190.865 210.909 191.307C214.153 191.896 214.891 193.368 219.758 215.747L264.3 233.267C290.405 243.573 310.463 252.26 312.676 254.321C315.183 256.677 317.543 261.83 323 282H0L0.737443 277.878C1.17991 275.669 2.50731 270.516 3.68721 266.541C4.71963 262.418 6.93196 257.56 8.55434 255.499C10.6192 252.701 22.8607 247.254 103.979 215.6L106.929 203.821C109.584 193.515 110.321 191.896 113.566 191.307C115.631 190.865 118.138 190.129 119.023 189.834C120.351 189.393 120.941 185.712 120.941 178.203C120.941 168.633 120.203 165.689 115.926 156.413C113.124 150.671 110.026 142.427 109.142 138.451C108.109 134.182 106.192 130.354 104.569 129.176C103.095 128.293 100.882 125.642 99.7023 123.287C98.6699 121.078 96.9 115.925 96.0151 111.95C94.9826 107.828 94.2452 101.644 94.2452 97.9632C94.0977 93.6936 94.8352 90.8962 96.3101 89.8656C98.2274 88.5406 98.3749 86.3321 97.0475 73.6704C96.0151 65.1311 95.8676 55.2667 96.605 50.1137C97.6374 42.7522 98.6699 40.3966 103.389 35.3908C106.487 32.1517 108.994 28.1765 108.994 26.557C109.142 24.9375 111.059 20.5206 113.566 16.5454C116.811 11.3924 120.056 8.74223 125.66 5.94487Z" fill="#3B3B3B"/>
</svg>
